<?xml version="1.0" encoding="utf-8"?>
<!-- Generator: Adobe Illustrator 18.0.0, SVG Export Plug-In . SVG Version: 6.00 Build 0)  -->
<!DOCTYPE svg PUBLIC "-//W3C//DTD SVG 1.1//EN" "http://www.w3.org/Graphics/SVG/1.1/DTD/svg11.dtd" [
	<!ENTITY ns_extend "http://ns.adobe.com/Extensibility/1.0/">
	<!ENTITY ns_ai "http://ns.adobe.com/AdobeIllustrator/10.0/">
	<!ENTITY ns_graphs "http://ns.adobe.com/Graphs/1.0/">
	<!ENTITY ns_vars "http://ns.adobe.com/Variables/1.0/">
	<!ENTITY ns_imrep "http://ns.adobe.com/ImageReplacement/1.0/">
	<!ENTITY ns_sfw "http://ns.adobe.com/SaveForWeb/1.0/">
	<!ENTITY ns_custom "http://ns.adobe.com/GenericCustomNamespace/1.0/">
	<!ENTITY ns_adobe_xpath "http://ns.adobe.com/XPath/1.0/">
]>
<svg version="1.1" xmlns:x="&ns_extend;" xmlns:i="&ns_ai;" xmlns:graph="&ns_graphs;"
	 xmlns="http://www.w3.org/2000/svg" xmlns:xlink="http://www.w3.org/1999/xlink" x="0px" y="0px" viewBox="0 0 500 446.4"
	 enable-background="new 0 0 500 446.4" xml:space="preserve">
<metadata>
	<sfw  xmlns="&ns_sfw;">
		<slices></slices>
		<sliceSourceBounds  width="500" height="500" x="0" y="-500" bottomLeftOrigin="true"></sliceSourceBounds>
		<optimizationSettings>
			<targetSettings  targetSettingsID="0" fileFormat="JPEGFormat">
				
					<JPEGFormat  quality="81" progressive="true" matteColor="#FFFFFF" noMatteColor="false" optimized="true" embedICCProfile="true" blurAmount="0">
					</JPEGFormat>
			</targetSettings>
		</optimizationSettings>
	</sfw>
</metadata>
<g id="BACKGROUND" display="none">
	<rect y="-24.3" display="inline" fill="#FFFFFF" width="500" height="500"/>
	<g display="inline">
		<path fill="#ECF3FF" d="M112.4,70.4c15.6,1,22.2-9.6,29.5-23.3c20.1-37.5,64.8-33.9,79.8-10.8c10.6,16.4,33.6,13,52.1,6.6
			c18.3-6.3,49.4-12.4,74.1-4.8c21.6,6.6,30.5,30.3,50.2,28.8c43-3.2,64.7,39.3,56.9,57.8c-5.1,12.1-7.6,25.6-3.5,38.1
			c4.6,13.7,15,24.6,23.4,36.3c8.4,11.8,15.2,26.5,11,40.3c-3.6,11.8-14.2,20-20.9,30.5c-20.6,32.5-0.2,82.2-27.6,109.3
			c-19.6,19.4-51.6,14.9-79.1,18.6c-22.9,3.1-44.4,12.7-67.2,16.5c-46.1,7.6-92.8-9.2-139.5-9.6c-16.5-0.2-33.3,1.7-49.2-2.4
			c-21.3-5.4-39.4-21.8-46.8-42.3c-10.2-28.3-0.5-61.1-12.1-88.9c-9.4-22.6-32.3-41.1-30.9-65.5c0.9-15.2,11.3-27.9,18.4-41.4
			C41.8,144.1,27.8,64.8,112.4,70.4z M248.6,33.7c-4.1,0-7.4,2.5-7.4,5.7s3.3,5.4,7.4,5.7c13.3,0.9,13.3-4.5,13.3-7.7
			C261.9,32.4,252.7,33.7,248.6,33.7z M384.2,58c3.6,2.9,8.1,4.7,12.8,5c1.2,0.1,2.6,0,3.5-0.8c1.2-1,1.3-3,0.3-4.1
			c-0.7-0.7-1.6-1-2.5-1.4c-1.5-0.6-3-1.5-3.9-2.9c-0.3-0.4-0.5-0.9-0.9-1.1C390.9,51.2,379.5,54.1,384.2,58z M406.9,63
			c1.2,0.4,2.5,0,3.6-0.4c0.8-0.2,1.7-0.8,1.5-1.6c-0.1-0.4-0.4-0.6-0.8-0.8c-1.6-0.8-3.6-1.4-5.1-0.4C404.5,61,405.7,62.6,406.9,63
			z M461.2,170.3c0.2,1.8,1.3,3.3,2.4,4.7c2,2.8,4.1,5.6,6.8,7.8c1.1,0.9,2.5,1.7,3.9,1.8c1.3,0,2.6-0.6,3.7-1.3
			c2.6-1.9,4.4-4.9,4.8-8.1c0.5-4.4-1.5-8.7-3.9-12.4c-1.5-2.3-3.2-4.6-5.7-5.9c-4.1-2.1-6.9-0.3-8,3.4
			C464.1,163.6,460.8,166.5,461.2,170.3z M20.8,272.8c-2.2,1.9-0.2,7.5,0.4,11.2c0.2,1.1,0.5,2.3,1.2,3.2c1,1.2,2.6,1.7,4.1,2.1
			c2.7,0.8,5.9,1.4,7.9-0.4c1.5-1.4,1.7-3.6,1.7-5.7c0-1.9-0.1-3.7-0.3-5.6c-0.1-0.9-0.2-1.8-0.7-2.6c-0.6-1-1.7-1.5-2.7-2
			C28.5,271.5,23,270.9,20.8,272.8z M154,413.5c-1.3,0.3-2.8,0.8-3,2.1c-0.2,1.1,0.7,2,1.6,2.6c7.1,5.3,16.7,5.6,25.6,5.8
			c1,0,2.1,0,3.1-0.4c1.9-0.8,2.8-3.3,1.9-5.2c-0.3-0.7-0.8-1.2-1.4-1.8C174.7,409.8,162.9,411.8,154,413.5z M331.7,410
			c-8,5.9,0.1,11.1,10.2,7.2c5.5-2.1,10.7-4.2,16.3-5.6c1.8-0.5,12.7-2.8,12.7-5.3c0-6.5-12.3-5-20.1-3.9
			C344.7,403.3,338.3,405.1,331.7,410z"/>
	</g>
</g>
<g id="OBJECTS">
	<g>
		<ellipse fill="#C8DBFB" cx="180.8" cy="389.4" rx="38.6" ry="3.6"/>
		<ellipse fill="#C8DBFB" cx="379.4" cy="389.4" rx="38.6" ry="3.6"/>
		<g>
			<g>
				<g>
					<path fill="none" stroke="#C8DBFB" stroke-linecap="round" stroke-linejoin="round" d="M461,135.2c-0.1-0.7-0.2-1.3-0.4-2"/>
					<path fill="none" stroke="#C8DBFB" stroke-linecap="round" stroke-linejoin="round" stroke-dasharray="3.9929,3.9929" d="
						M459.7,129.3c-6.9-23.5-28.9-21.2-48.7-21.2c-21.4,0-352.5,0.7-352.5,0.7c-33.3,0.1-30.1,48.1-4,48.1c15,0,20.7,28.1-5.2,28.2
						c-15.5,0-16,19.7-5.6,23.7"/>
					<path fill="none" stroke="#C8DBFB" stroke-linecap="round" stroke-linejoin="round" d="M45.6,209.3c0.6,0.1,1.3,0.2,2,0.2"/>
				</g>
			</g>
			<circle fill="#5193F4" cx="46.9" cy="209.3" r="4.8"/>
			<circle fill="#5193F4" cx="461" cy="136.4" r="4.8"/>
		</g>
		<g>
			<g>
				<path fill="#5193F4" d="M100.4,173.5c-0.7,3.9-1.7,7.7-2.9,11.4c-2.6,8.1-6.3,15.9-10,23.6c-1.9,4-9.8,13.3-14,15.1
					c0.5-10.5,0.5-22.7-0.7-33.3c-1.2-10.2,2.5-17.9-1.5-27.4c-0.5-1.2-1-2.4-1.6-3.6c-2-4.5-4-9-4.6-13.9
					c-0.8-6.2,1.1-13.2,6.4-16.4c3.8-2.3,8.8-2.2,12.9-0.4c4.1,1.8,7.4,5.1,9.9,8.8C101.4,147.9,102.6,161.3,100.4,173.5z"/>
				<path fill="none" stroke="#0B43A4" stroke-linecap="round" stroke-linejoin="round" stroke-miterlimit="10" d="M81.8,139.6
					c7.8,11.1,8.5,23.9,9.2,37.5c0.7,13.5-2.6,27.2-9.3,39"/>
			</g>
			<g>
				<path fill="#00AD9F" d="M81.5,343.5c-5.5-4.9-11-9.8-15.1-15.9c-3.5-5.3-5.8-11.3-8.9-16.9c-2-3.6-4.3-7.1-5.5-11.1
					c-1.2-4-0.9-8.7,1.9-11.7c2.9-3.1,8-3.6,12-2c4,1.6,7,5,9.4,8.6c3.1,4.8,5.2,10.3,6,15.9c0.8,5.1,0.6,10.4,1.4,15.5
					c0.7,4.8,2.3,9.4,4.4,13.7c1.8,4,6.5,11,7.7,15.1C91.5,356.5,83.9,345.6,81.5,343.5z"/>
				<path fill="none" stroke="#00AD9F" stroke-linecap="round" stroke-linejoin="round" stroke-miterlimit="10" d="M62.3,293.2
					c5.2,2.3,7.3,8.5,8.4,14.1c1.2,6.4,1,13.3,3.9,19c5.5,10.9,12.7,23.3,18,27"/>
			</g>
			<g>
				<path fill="#0056EC" d="M54.5,328.6c-4.6-1.8-10.6-2.5-13.6,1.4c-2.4,3.3-1.2,8,0.5,11.7c1.4,3.2,3.2,6.4,6.2,8.1
					c2.1,1.2,4.5,1.5,6.8,1.8c6.5,0.8,13.1,1.2,19.7,1.1c7.6,0,16.9,3.1,23.2,7.9C89.4,345.5,69.8,334.7,54.5,328.6z"/>
				<path fill="none" stroke="#0B43A4" stroke-linecap="round" stroke-linejoin="round" stroke-miterlimit="10" d="M46.5,338.4
					c5.8,0.2,11.6,0.7,17.2,2.3c5.7,1.7,27.6,11.7,31,16"/>
			</g>
			<g>
				<path fill="#52D2BC" d="M104.2,297.7c-5.9-9.3-16.1-15.8-27-17.2c-8.1-1.1-16.4,0.4-24.3-1.3c-8.4-1.8-15.9-7.1-20.3-14.5
					s-5.5-16.5-3-24.7c1.9-6.2,6.1-12.1,12.3-14.1c3.4-1.1,7.1-0.9,10.5-0.1c3.2,0.8,6.1,2.1,8.8,3.8c6.2,3.9,11.2,10,15,16.4
					c3.4,5.9,11.9,15,17.7,20.9c3.4,3.5,5.8,5.8,5.8,5.8C103.7,277.6,101.9,291.8,104.2,297.7z"/>
				<path fill="none" stroke="#00AD9F" stroke-linecap="round" stroke-linejoin="round" stroke-miterlimit="10" d="M40.1,243.9
					c19.4,8.7,40.5,20.2,54.2,36.4"/>
			</g>
			<g>
				<path opacity="0.2" fill="#5275A0" d="M96.2,278.1c0,0-28.9-23.4-34.9-48.5c6.2,3.9,11.2,10,15,16.4c3.4,5.9,11.9,15,17.7,20.9
					C94.6,270.1,95.4,273.7,96.2,278.1z"/>
				<path opacity="0.2" fill="#5275A0" d="M97.5,185c-2.6,8.1-6.3,15.9-10,23.6c-1.9,4-9.8,13.3-14,15.1c0.5-10.5,0.5-22.7-0.7-33.3
					c-1.2-10.2,2.5-17.9-1.5-27.4c-0.5-1.2-1-2.4-1.6-3.6c0.4,0.1,0.7,0.2,1.1,0.4c6.6,2.8,9.6,9.8,10.2,16.5
					c0.5,5.6-0.5,11.2-1.3,16.7c-0.3,2.6-0.6,5.2-0.1,7.7c0,0,0,0.1,0,0.1c0.7,3,5.1,2.8,5.6-0.2l1.8-9.3c0.5-2.8,1.1-5.7,3.4-7.6
					c0.9-0.8,2.1-1.2,3.2-1.2C95.6,182.4,96.7,183.5,97.5,185z"/>
				<path fill="#7EE8D4" d="M96.2,272.2c-4.6-23.8-7-27.5-5-33.4c2.6-7.6,1.1-15.3,3.5-22.9c2.4-7.7,4.1-15.9,2.1-23.7
					c-0.6-2.5-1.9-5.1-4.8-5.2c-1.2,0-2.3,0.4-3.2,1.2c-2.3,1.9-2.9,4.9-3.4,7.6l-1.7,9.3c-0.6,3-4.9,3.2-5.6,0.2c0,0,0-0.1,0-0.1
					c-0.6-2.5-0.3-5.1,0.1-7.7c0.7-5.6,1.8-11.1,1.3-16.7c-0.6-6.8-3.6-13.7-10.2-16.5c-2.3-1-5-1.2-7.4-0.6
					c-6.9,1.8-8.7,8.5-7.6,14.2c0.7,4,2.6,7.7,4.3,11.5c4.2,9.1,1.1,17.4,1.7,27.4C61.8,244.3,96.2,272.2,96.2,272.2z"/>
				<path fill="none" stroke="#00AD9F" stroke-linecap="round" stroke-linejoin="round" stroke-miterlimit="10" d="M65.5,170.9
					c3.4,16.9,6.8,34,13.4,50c1.9,4.7,2.9,10.8,14,23.6"/>
			</g>
			<g>
				<path fill="#5193F4" d="M197.8,175.2c-3.5-4-6.8-8.1-10.2-12c-2.2-2.5-4.5-5-7-7.4c-1.2-1.2-2.5-2.3-3.8-3.4
					c-7.9-6.5-16.8-12-26.2-16c-5.7-2.4-11.7-4.4-16.6-8.3c-4.8-3.9-8.3-10.3-6.7-16.2c1.2-4.3,4.8-7.7,9.1-9.2
					c4.2-1.5,8.9-1.4,13.2-0.5c12.2,2.6,22.4,11.4,29.3,21.8c0.1,0.2,0.2,0.4,0.4,0.6c5.1,7.8,8.6,16.4,11.7,25.1
					c1,2.8,1.9,5.7,2.9,8.5C195.3,162.3,199.6,171,197.8,175.2z"/>
				<path fill="none" stroke="#0B43A4" stroke-linecap="round" stroke-linejoin="round" stroke-miterlimit="10" d="M142,112.3
					c13.3,2.5,22.7,11.4,32.6,20.6s17,21.4,20.4,34.5"/>
			</g>
			<g>
				<path opacity="0.2" fill="#5275A0" d="M187.6,163.2c-0.1,1.4-0.1,2.8,0.2,4.2c-3.3-0.8-5.6-5.9-7.2-11.6
					c-1.5-5.5-2.2-11.4-2.5-14.1c-0.4-5.8-0.1-11.6,1.1-17.3c5.1,7.8,8.6,16.4,11.7,25.1c-1.1,3.2-2,6.3-2.7,9.6
					C188,160.5,187.7,161.8,187.6,163.2z"/>
				<path fill="#52D2BC" d="M210.7,115.2c-1.1,5-4.1,9.3-6.8,13.7c-1.4,2.3-2.7,4.7-3.9,7.1c-3.9,7.7-6.9,15.8-8.9,24.2
					c-0.6,2.8-1,5.4-0.5,8.2c-6.6-1.5-9.2-20.1-9.6-25.7c-0.8-10,0.9-20.2,5-29.4c1.8-4,4.1-8,7.7-10.5c3.6-2.6,8.6-3.5,12.4-1.2
					c2.3,1.3,3.7,3.6,4.4,6.1C211.2,110.1,211.3,112.7,210.7,115.2z"/>
				<path fill="none" stroke="#00AD9F" stroke-linecap="round" stroke-linejoin="round" stroke-miterlimit="10" d="M188.1,162.9
					c-4.1-10.2-1.6-31.9,4.9-45.6c2-4.1,4.8-8,8.7-10.3"/>
			</g>
			<g>
				<path opacity="0.2" fill="#5275A0" d="M210.7,115.2c-1.1,5-4.1,9.3-6.8,13.7c-1.4,2.3-2.7,4.7-3.9,7.1c-1.8-3-3-6.4-3.4-9.8
					c-0.6-5.8,1.7-12,6.4-15.5c2.2-1.6,4.8-2.5,7.5-2.9C211.2,110.1,211.3,112.7,210.7,115.2z"/>
				<path fill="#00AD9F" d="M248.6,158.6c-0.3,1.9-0.9,3.7-1.7,5.5c-2.9,6.3-9,11.7-18.2,16.1c0,0-0.5-10-0.6-12.6
					c-0.4-11.4-12.8-17.7-20.7-26.1c-4-4.2-7-9.6-7.6-15.4c-0.6-5.8,1.7-12,6.4-15.5c4-2.9,9.1-3.5,14-3.1
					c7.9,0.6,15.8,3.9,20.7,10.1c0.2,0.2,0.4,0.5,0.6,0.7c3,4.1,4.5,9.1,5.7,14C249.1,140.9,250,149.8,248.6,158.6z"/>
				<path fill="none" stroke="#00AD9F" stroke-linecap="round" stroke-linejoin="round" stroke-miterlimit="10" d="M209.6,116.7
					c8.6,4.4,17.2,9.8,22.2,18.1c7,11.5,5.4,26.5,0.1,38.9"/>
			</g>
			<g>
				<path fill="#52D2BC" d="M392.1,232.2c5.5-9,2.7-20.6,4.6-30.9c1.5-8,5.9-15.3,12.2-20.4c4-3.2,9.6-5.4,14.1-3
					c1,0.5,2.1,1.2,3.1,0.7c0.6-0.3,0.8-1,0.9-1.7c1.1-5.6-1.5-11.7,0.6-17c1.2-2.8,3.6-5,6.2-6.6c5-3.2,10.8-5,16.8-5.3
					c1.6-0.1,3.2,0,4.6,0.7c2.5,1.3,3.7,4.4,3.4,7.3c-0.3,2.8-1.9,5.3-3.6,7.6c-5.7,7.5-14.2,14-15.3,23.4c-0.1,1.2-0.1,2.4,0.4,3.5
					c0.5,1,1.5,1.8,2.1,2.8c1.8,3.2-1.6,6.9-5,8.5c-3,1.5-6.4,2.4-9.7,2.7c-2.3,0.2-4.9,0.3-6.5,2c-2.9,3.2,0.4,8.2-0.2,12.5
					c-0.4,2.7-2.3,4.8-4.2,6.6c-3.6,3.4-7.5,6.5-11.7,9.2c-3.4,2.2-7,4.1-10,6.8c-3,2.7-5.4,6.3-5.6,10.3"/>
				<path fill="none" stroke="#00AD9F" stroke-linecap="round" stroke-linejoin="round" stroke-miterlimit="10" d="M399.3,223.5
					c0.9-4.4,2.9-8.4,4.9-12.4c3.1-6.2,6.3-12.5,11.1-17.6c3.6-3.9,8-6.9,11.7-10.7c2.6-2.7,4.8-5.8,6.6-9.1c0.9-1.8,1.8-3.7,3-5.3
					c1.5-1.9,3.6-3.2,5.4-4.9c2.4-2.2,4.4-4.9,5.7-7.9"/>
			</g>
			<g>
				<path fill="#5193F4" d="M470.6,238.5c-1.2,4.7-3.1,9.4-6.2,13.2c-2.2,2.6-4.9,4.6-7.8,6.3c-1.5,0.9-3.1,1.6-4.7,2.3
					c-6.3,2.6-13,4.1-19.8,4.4c-9.9,0.4-20-1.8-29.5,1c-4.4,1.3-8.4,3.6-11.6,6.8c-2.1,1.9-3.8,4.2-5.2,6.6l1.3-8.2
					c2.4-8.8,4.8-17.8,9.7-25.5c3.1-5,7.2-9.4,11.6-13.4c7-6.4,14.7-12.1,23.2-16.2c6.9-3.3,14.5-5.7,22.1-4.8
					c7.6,0.9,15,5.7,17.4,13C472.5,228.6,471.8,233.7,470.6,238.5z"/>
				<path fill="none" stroke="#0B43A4" stroke-linecap="round" stroke-linejoin="round" stroke-miterlimit="10" d="M393.4,264.6
					c7.3-10.7,18.1-19,30.4-23.1c7.7-2.6,15.8-3.5,23.5-5.8c7.8-2.2,15.5-6,20.1-12.7"/>
			</g>
			<g>
				<path fill="#52D2BC" d="M398.2,343.3c0.4-11,6.1-21.2,13.1-29.8c5.8-7.2,12.7-13.7,21.3-17c2.7-1,5.7-1.7,8.5-1
					c2.8,0.7,5.3,3.1,5.4,6c0,2.4-1.6,4.6-3.3,6.3c-5.7,5.7-13,9.3-19.8,13.4c-11.8,7.1-23,16.6-27.7,29.6"/>
				<path fill="none" stroke="#00AD9F" stroke-linecap="round" stroke-linejoin="round" stroke-miterlimit="10" d="M402.5,333.7
					c7.2-16.1,25.8-30.4,38.1-32.2"/>
			</g>
			<g>
				<path fill="#00AD9F" d="M393.7,352.1c-0.1-1.8,5.9-6.7,7.3-7.9c7.5-6.8,16.5-11.8,25.9-14.8c3.8-1.2,7.9-2.1,11.7-1.1
					s7.3,4.1,7.7,8.2c0.4,4-2.3,7.9-5.7,9.9c-3.4,1.9-7.4,2.2-11.3,2c-5.9-0.3-11.7-1.8-17.6-1.8S397.4,347.2,393.7,352.1z"/>
				<path fill="none" stroke="#00AD9F" stroke-linecap="round" stroke-linejoin="round" stroke-miterlimit="10" d="M399.8,346.5
					c12.1-6.6,30.4-10.8,43.7-9.2"/>
			</g>
			<g>
				<path opacity="0.2" fill="#5275A0" d="M248.6,158.6c-0.3,1.9-0.9,3.7-1.7,5.5c-4.2-9-8-20.8-8.9-35.2c-0.2-3.9,0.8-7.9,2.9-11.3
					c0.2,0.2,0.4,0.5,0.6,0.7c3,4.1,4.5,9.1,5.7,14C249.1,140.9,250,149.8,248.6,158.6z"/>
				<path fill="#7EE8D4" d="M290.5,158.1c9-3.2,18.4-5.8,26.7-10.7c2.5-1.5,4.9-3.2,6.6-5.5c1.8-2.3,2.8-5.2,2.5-8.1
					c-0.4-2.9-2.3-5.7-1.6-8.6c0.4-1.9,1.8-3.4,2.9-5c2.6-3.8,3.4-8.8,2-13.3c-1.4-4.8-5-8.6-7-13.1c-1.7-3.7-2.3-7.9-1.7-11.9
					c-7.6,0.1-14.5,4.2-22,5.6c-5.7,1.1-11.6,0.5-17.3,1.8c-10.3,2.4-18.7,11.4-20.3,21.9c-4.8-0.8-9.9,0.9-13.3,4.4
					c-3.5,3.8-5.5,9.1-5.2,14.3c2.3,37.4,23.8,57,23.8,57S287,159.3,290.5,158.1z"/>
				<g>
					<path fill="none" stroke="#00AD9F" stroke-linecap="round" stroke-linejoin="round" stroke-miterlimit="10" d="M270.2,157.8
						c-0.9-9.2,2.3-18.4,6-26.9c3.6-8.3,7.8-16.4,13.3-23.5c5.6-7.1,12.7-13.2,21-16.7"/>
					<path fill="none" stroke="#00AD9F" stroke-linecap="round" stroke-linejoin="round" stroke-miterlimit="10" d="M278.3,96.4
						c-0.9,8.2-0.3,18.1,1.9,26.2"/>
					<path fill="none" stroke="#00AD9F" stroke-linecap="round" stroke-linejoin="round" stroke-miterlimit="10" d="M281.7,119.6
						c9.4-6,23.9-9.7,35-9.1"/>
					<path fill="none" stroke="#00AD9F" stroke-linecap="round" stroke-linejoin="round" stroke-miterlimit="10" d="M258.7,121.1
						c11.3,4.8,11.8,21.4,12.1,26.1"/>
					<path fill="none" stroke="#00AD9F" stroke-linecap="round" stroke-linejoin="round" stroke-miterlimit="10" d="M273.9,136.7
						c8.7-6.2,21.2-8.1,30.4-5.8"/>
					<path fill="none" stroke="#00AD9F" stroke-linecap="round" stroke-linejoin="round" stroke-miterlimit="10" d="M297.5,92.1
						c-2.6,3.2-3.3,7-3,9.7"/>
					<path fill="none" stroke="#00AD9F" stroke-linecap="round" stroke-linejoin="round" stroke-miterlimit="10" d="M297,99.4
						c4-2,9.3-2.5,15-1.1"/>
				</g>
			</g>
			<g>
				<path fill="#4A49CA" d="M74.3,117.5c1.1-0.1,8.3-5.4,11.1-7.2c0.8-0.5,1.6-1,2.1-1.8c0.5-0.8,0.8-1.8,0.4-2.6
					c-0.5-1.1-1.3-2.1-3.4-2.1c-3.6,0-4.9,1.2-6.6,3C72.1,112.8,74.3,117.5,74.3,117.5z"/>
				<path fill="#4A49CA" d="M106.8,139.2c3.2,1.4,6.5,2.8,10,2.4c1.3-0.2,2.8-0.8,3.2-2c0.4-1.1-0.1-2.3-1-3.1
					c-0.9-0.8-2-1.1-3.1-1.4c-4.2-1-10.1-0.5-14.3,0.7C101.6,135.8,104.9,138.4,106.8,139.2z"/>
				<path fill="#4A49CA" d="M127.6,92.6c-1.4-0.9-3-2.1-3-3.7c0-1.7,1.7-2.9,3.4-3c1.7,0,3.2,0.9,4.5,2c5.3,4.7,4.7,10,4.7,10
					S129.2,93.6,127.6,92.6z"/>
				<path fill="#4A49CA" d="M131.8,78.3c-1.2-0.5-2.5-1.2-3.2-2.3c-0.4-0.6-0.6-1.3-0.3-1.9c0.4-1,1-2,3.6-1.5
					c8.2,1.5,10,7.1,10,7.1S134,79.3,131.8,78.3z"/>
				<path fill="#4A49CA" d="M156,90.8c3.3-0.3,6.7-1.9,8.8-4.5c0.8-1,1.5-2.1,1.8-3.3c0.3-1.2,0-2.6-1-3.5c-1.2-1-3-0.8-4.3,0
					c-1.3,0.8-2.1,2.2-2.8,3.6C157.7,85,156,90.8,156,90.8z"/>
				<path fill="none" stroke="#0B43A4" stroke-linecap="round" stroke-linejoin="round" stroke-miterlimit="10" d="M96.9,211.5
					c-8-7.1-16-14.1-24-21.2c-4.3-3.8-8.6-7.6-11.3-12.6c-5.8-10.8-2.5-24.8,5.4-34.1c7.9-9.4,19.4-14.9,30.9-19
					c11.6-4,23.6-6.9,34.6-12.2c6.9-3.3,13.9-8.3,15.7-15.8c1.1-4.5,0.2-9.4-2.5-13.2c-2.7-3.7-7.2-6.1-11.8-6.4"/>
				<path fill="none" stroke="#0B43A4" stroke-linecap="round" stroke-linejoin="round" stroke-miterlimit="10" d="M161.6,83.1
					c-2.2,6.7-10.7,10.8-14.6,16.6"/>
				<path fill="none" stroke="#0B43A4" stroke-linecap="round" stroke-linejoin="round" stroke-miterlimit="10" d="M131,90.9
					c1.7,1.8,3.7,3.2,5.2,5.2c3.1,4.1,3.4,10.8-1.2,15"/>
				<path fill="none" stroke="#0B43A4" stroke-linecap="round" stroke-linejoin="round" stroke-miterlimit="10" d="M87.8,128.5
					c7.1,5.4,16.4,9.1,25.3,9.4"/>
				<path fill="none" stroke="#0B43A4" stroke-linecap="round" stroke-linejoin="round" stroke-miterlimit="10" d="M71.6,138.4
					c-3.3-9.6,0.3-21.1,8.4-27.2"/>
			</g>
			<g>
				<path fill="#4A49CA" d="M330,97.9c-0.4-1.2-0.4-2.6,0.5-3.5c0.7-0.7,1.9-1,2.8-0.6c7,3.1,6.3,14.1,6.3,14.1
					S332.9,106.8,330,97.9z"/>
				<path fill="#4A49CA" d="M329.9,118.4c-4.5,8.2,11.6,7.6,17.4,2.8C347.3,121.2,333.8,111.4,329.9,118.4z"/>
				<path fill="#4A49CA" d="M350.3,98.5c-1.1-1.5-1.5-3.7-0.3-5.2c0.9-1.1,2.4-1.4,3.8-1.1c1.4,0.3,3.4,1.5,4.3,2.6
					c5.3,6.6,2.8,13.1,2.8,13.1S352.1,101,350.3,98.5z"/>
				<path fill="#4A49CA" d="M414.5,118.9c-0.4-1.3-0.3-2.8,0.7-3.7c0.6-0.6,1.5-0.8,2.4-0.7c0.8,0.1,1.6,0.4,2.4,0.7
					c1.6,0.8,2.9,2.1,3.7,3.7c2,4.1,0.6,9.2,0.6,9.2S415.5,122,414.5,118.9z"/>
				<path fill="#4A49CA" d="M394.3,133.9c-2.9-2.5-7.2-3.3-10.7-1.7c-0.9,0.4-1.7,0.9-2.3,1.7c-1.3,1.8-0.8,4.3,0.5,6.1
					c1.3,1.7,3.3,2.8,5.3,3.7c3.6,1.6,9.2,2,13,2.9C400.1,146.6,400.1,139,394.3,133.9z"/>
				<path fill="none" stroke="#0B43A4" stroke-linecap="round" stroke-linejoin="round" stroke-miterlimit="10" d="M335.1,99.6
					c2.4,7.8,9.1,13.7,16.6,16.8c7.5,3.2,15.7,4,23.9,4.5c8.1,0.5,16.3,0.8,24.2,2.9c7.7,2.1,15.3,6.4,18.6,13.6
					c4,8.8,0.5,19.3-5.2,27.1c-5.6,7.9-13.2,14.2-18.6,22.2c-2.5,3.7-4.6,8-4.1,12.4c0.7,5.9,5.6,10.2,10.2,13.9"/>
				<path fill="none" stroke="#0B43A4" stroke-linecap="round" stroke-linejoin="round" stroke-miterlimit="10" d="M353.8,96.8
					c5.4,6,9.7,15.3,10.7,23.2"/>
				<path fill="none" stroke="#0B43A4" stroke-linecap="round" stroke-linejoin="round" stroke-miterlimit="10" d="M335.7,119.8
					c3.1,0.8,6.2,1.6,9.4,1.6c3.2,0,6.9-1.8,9.2-4"/>
				<path fill="none" stroke="#0B43A4" stroke-linecap="round" stroke-linejoin="round" stroke-miterlimit="10" d="M419.8,119.3
					c2.9,2.8,4.6,6.7,4.8,10.7c0.1,4-2.1,8.9-4.7,11.9"/>
				<path fill="none" stroke="#0B43A4" stroke-linecap="round" stroke-linejoin="round" stroke-miterlimit="10" d="M389.6,137.5
					c5.8,5.3,10.8,9.6,17.2,14.1c2.9,2.1,8.7,4.7,11.3,4"/>
			</g>
			<g>
				<path opacity="0.2" fill="#5275A0" d="M456.5,258c-1.5,0.9-3.1,1.6-4.7,2.3c-6.3,2.6-13,4.1-19.8,4.4c-9.9,0.4-20-1.8-29.5,1
					c-4.4,1.3-8.4,3.6-11.6,6.8c-0.3,0.2-0.7,0.3-1,0.5c-0.8-6.7,15.9-15.4,21-17.7c9.1-4.1,19.4-5.9,29.4-5.1
					c4.4,0.3,8.9,1.2,12.5,3.7C454.2,254.9,455.6,256.3,456.5,258z"/>
				<path fill="#52D2BC" d="M440.2,254.1c4.4,0.3,8.9,1.2,12.5,3.7c3.6,2.5,6.2,6.9,5.3,11.3c-1,5-6.2,8.3-11.2,8.9
					c-5.1,0.6-10.2-0.8-15.2-1.8c-11.1-2.3-22.5-2.8-33.8-1.5c-2.8,0.3-5.5,0.9-7.9,2.3c-0.8-6.7,15.9-15.4,21-17.7
					C420,255.2,430.2,253.3,440.2,254.1z"/>
				<path fill="none" stroke="#00AD9F" stroke-linecap="round" stroke-linejoin="round" stroke-miterlimit="10" d="M394.2,272.7
					c8.3-7.3,29.5-12.2,44.6-10.6c4.5,0.5,9.1,1.8,12.6,4.8"/>
			</g>
		</g>
		
			<path fill="none" stroke="#0B43A4" stroke-linecap="round" stroke-linejoin="round" stroke-miterlimit="10" stroke-dasharray="4" d="
			M378.8,190.9l80.9-0.2c9.5,0,17.2,7.7,17.2,17.2v0c0,9.5-7.7,17.2-17.2,17.2l-55.3,0.1"/>
		
			<path fill="none" stroke="#0B43A4" stroke-linecap="round" stroke-linejoin="round" stroke-miterlimit="10" stroke-dasharray="4" d="
			M134,250.3l-56.6,0.1c-5.4,0-9.7,4.4-9.7,9.7l0,0c0,5.4,4.4,9.7,9.7,9.7l16.5,0"/>
		<g>
			
				<path fill="none" stroke="#C8DBFB" stroke-linecap="round" stroke-linejoin="round" stroke-miterlimit="10" stroke-dasharray="4" d="
				M43.7,294.1c-19.4,0-19.8,28.9,4.9,28.9c24.7-0.1,348.1-0.7,363.4-0.7s16.9-23.8-2-23.8c-37.5,0.1-38.8-17.8-17.9-17.9"/>
			<circle fill="#5193F4" cx="43.5" cy="294.1" r="4.8"/>
			<circle fill="#0B43A4" cx="396.6" cy="281.5" r="4.8"/>
		</g>
		<g>
			<path opacity="0.2" fill="#5275A0" d="M406.6,364.3l-300.9,0.6c-4,0-7.3-3.2-7.3-7.3L98,158.3c0-4,3.2-7.3,7.3-7.3l300.9-0.6
				c4,0,7.3,3.2,7.3,7.3l0.4,199.3C413.8,361,410.6,364.3,406.6,364.3z"/>
			<g>
				<path fill="#FFFFFF" d="M400.7,360.5l-300.9,0.6c-4,0-7.3-3.2-7.3-7.3l-0.4-199.3c0-4,3.2-7.3,7.3-7.3l300.9-0.6
					c4,0,7.3,3.2,7.3,7.3l0.4,199.3C407.9,357.2,404.7,360.5,400.7,360.5z"/>
				<path fill="#0056EC" d="M399.7,146.6l-299.6,0.6c-4.4,0-7.9,3.6-7.9,7.9l0,6.9l315.4-0.7l0-6.9
					C407.7,150.2,404.1,146.6,399.7,146.6z"/>
				<path fill="#C8DBFB" d="M100.5,361.1l45.3-0.1l-0.4-199.1l-53.2,0.1l0.4,191.2C92.6,357.6,96.1,361.1,100.5,361.1z"/>
				<g>
					<path fill="#0056EC" d="M400.3,148.6c2.9,0,5.3,2.4,5.3,5.3l0.4,199.3c0,2.9-2.4,5.3-5.3,5.3l-300.9,0.6
						c-2.9,0-5.3-2.4-5.3-5.3l-0.4-199.3c0-1.4,0.5-2.7,1.5-3.7c1-1,2.3-1.5,3.7-1.6L400.3,148.6L400.3,148.6 M400.3,146.6
						C400.3,146.6,400.3,146.6,400.3,146.6l-300.9,0.6c-4,0-7.3,3.3-7.3,7.3l0.4,199.3c0,4,3.3,7.3,7.3,7.3c0,0,0,0,0,0l300.9-0.6
						c4,0,7.3-3.3,7.3-7.3l-0.4-199.3C407.6,149.9,404.3,146.6,400.3,146.6L400.3,146.6z"/>
				</g>
				<path fill="#FFFFFF" d="M138.1,345.9l-34.9,0.1c-1.5,0-2.8-1.2-2.8-2.8l0-0.3c0-1.5,1.2-2.8,2.8-2.8l34.9-0.1
					c1.5,0,2.8,1.2,2.8,2.8l0,0.3C140.9,344.6,139.7,345.9,138.1,345.9z"/>
				<path fill="#FFFFFF" d="M133.9,210.8l-29.7,0.1c-2.8,0-5.1-2.3-5.1-5.1l-0.1-29.7c0-2.8,2.3-5.1,5.1-5.1l29.7-0.1
					c2.8,0,5.1,2.3,5.1,5.1l0.1,29.7C139,208.5,136.8,210.8,133.9,210.8z"/>
				<path fill="#C8DBFB" d="M261.1,299.8L157.6,300c-2,0-3.6-1.6-3.6-3.6l0-0.5c0-2,1.6-3.6,3.6-3.6l103.5-0.2c2,0,3.6,1.6,3.6,3.6
					l0,0.5C264.7,298.2,263.1,299.8,261.1,299.8z"/>
				<path fill="#C8DBFB" d="M255.1,181.9l-81.8,0.2c-2,0-3.6-1.6-3.6-3.6l0-0.5c0-2,1.6-3.6,3.6-3.6l81.8-0.2c2,0,3.6,1.6,3.6,3.6
					l0,0.5C258.7,180.3,257.1,181.9,255.1,181.9z"/>
				<path fill="#C8DBFB" d="M384.4,264.6l-109,0.2c-2,0-3.6-1.6-3.6-3.6l0-0.5c0-2,1.6-3.6,3.6-3.6l109-0.2c2,0,3.6,1.6,3.6,3.6
					l0,0.5C388,263,386.4,264.6,384.4,264.6z"/>
				<path fill="#C8DBFB" d="M261.1,315.8L157.6,316c-2,0-3.6-1.6-3.6-3.6l0-0.5c0-2,1.6-3.6,3.6-3.6l103.5-0.2c2,0,3.6,1.6,3.6,3.6
					l0,0.5C264.8,314.2,263.1,315.8,261.1,315.8z"/>
				<path fill="#C8DBFB" d="M261.1,331.8L157.7,332c-2,0-3.6-1.6-3.6-3.6l0-0.5c0-2,1.6-3.6,3.6-3.6l103.5-0.2c2,0,3.6,1.6,3.6,3.6
					l0,0.5C264.8,330.1,263.2,331.8,261.1,331.8z"/>
				<path fill="#C8DBFB" d="M382.2,342.2l-104.3,0.2c-3.3,0-6-2.7-6-6l-0.1-44.8c0-3.3,2.7-6,6-6l104.3-0.2c3.3,0,6,2.7,6,6
					l0.1,44.8C388.2,339.5,385.5,342.2,382.2,342.2z"/>
				<circle fill="#C8DBFB" cx="107" cy="154.5" r="2.5"/>
				<circle fill="#C8DBFB" cx="117.8" cy="154.5" r="2.5"/>
				<circle fill="#C8DBFB" cx="128.6" cy="154.5" r="2.5"/>
				<circle fill="#C8DBFB" cx="158.3" cy="178.2" r="7.4"/>
				<path fill="#FFFFFF" d="M136,217.1l-32.6,0.1c-0.8,0-1.4-0.6-1.4-1.4l0-0.2c0-0.8,0.6-1.4,1.4-1.4l32.6-0.1
					c0.8,0,1.4,0.6,1.4,1.4l0,0.2C137.4,216.5,136.8,217.1,136,217.1z"/>
				<path fill="#FFFFFF" d="M136,223.3l-32.6,0.1c-0.8,0-1.4-0.6-1.4-1.4l0-0.2c0-0.8,0.6-1.4,1.4-1.4l32.6-0.1
					c0.8,0,1.4,0.6,1.4,1.4l0,0.2C137.4,222.7,136.8,223.3,136,223.3z"/>
				<path fill="#C8DBFB" d="M173.4,236.5l-9.2,0.1l0.1,38.7l-8,0c-2.8,0-5.1-2.3-5.1-5.1l-0.1-71.5c0-2.8,2.3-5.1,5.1-5.2l17.1,0
					L173.4,236.5z"/>
				<g>
					<path fill="#C8DBFB" d="M233.3,193.4v1c2.8,0,5,2.2,5,5l0.1,69.7c0,2.8-2.2,5-5,5l-76.3,0.2c-2.8,0-5-2.2-5-5l-0.1-69.7
						c0-2.8,2.2-5,5-5l76.3-0.2L233.3,193.4 M233.3,193.4C233.3,193.4,233.3,193.4,233.3,193.4l-76.3,0.2c-3.3,0-6,2.7-6,6l0.1,69.7
						c0,3.3,2.7,6,6,6c0,0,0,0,0,0l76.3-0.2c3.3,0,6-2.7,6-6l-0.1-69.7C239.3,196,236.6,193.4,233.3,193.4L233.3,193.4z"/>
				</g>
			</g>
			<path fill="#C8DBFB" d="M360.6,250.8l-101.7-23c-3.2-0.7-5.3-4-4.5-7.2l11.4-50.6c0.7-3.2,4-5.3,7.2-4.5l101.7,23
				c3.2,0.7,5.3,4,4.5,7.2l-11.4,50.6C367.1,249.5,363.9,251.5,360.6,250.8z"/>
			<g>
				<polygon fill="#0056EC" points="163.8,388.5 149.5,388.5 146,370.4 167.2,370.3 				"/>
				<path fill="#C8DBFB" d="M150,370.3c0,1.5-0.3,4,0.7,4c1,0,0.6-2.4,1.7-2.3c0.7,0-0.3,7.9,2.4,8.1c1.9,0.1,1.5-3.8,1.7-6.3
					c0.1-1.7,2.3-1.4,2.3-0.2c0,1.2-0.1,2.1,0,3.5c0.1,2.4,3.7,1.7,3.6-1.4s0-5.3,0-5.3L150,370.3z"/>
				<g>
					<path fill="#0C2340" d="M146.6,381.3c-0.3,0-0.6,0-0.8-0.1c-1-0.2-1.8-0.8-2.2-1.6c-1.5-3.1,2.4-8.8,2.5-9.1l0.2,1
						c0,0.1-3.4,5-2.1,7.8c0.3,0.7,0.9,1.1,1.7,1.2c0.2,0.1,0.5,0.1,0.7,0.1c5.1,0,13.9-9.6,14-9.7c0.4-0.4,1,0,0.8,0.3
						C161,371.7,152.1,381.3,146.6,381.3z"/>
				</g>
			</g>
			<g>
				<path opacity="0.2" fill="#5275A0" d="M296.1,133.3c-20.2-0.8-48.1,14.2-38.2,50.8c-0.2,3.1,1.6,5.3,3.6,4.7
					c2-0.6,0.2-6.5,0.2-6.5c3.4-27.2,9.7-31.9,20.4-31.8l25.1-0.1c6.2,0.9,17.5,5.3,19.2,27l6.2,1.2
					C333.1,162.9,329.3,134.6,296.1,133.3z"/>
				<path fill="#EF832B" d="M296.1,130.1c-20.2-0.8-48.1,14.2-38.2,50.8l3.8-1.8c3.4-27.2,9.7-31.9,20.4-31.8l25.1-0.1
					c6.2,0.9,17.8,6.4,19.5,28.2l5.9,0C333.1,159.7,329.3,131.4,296.1,130.1z"/>
				<path fill="#FFB9A3" d="M292,130.7l-3,6.6c0,0,0.4,3.7,4,3.6c3.6-0.1,4.1-1.8,4.1-1.8l0.5-7.6L292,130.7z"/>
				<path fill="#FFB9A3" d="M307.5,125.2c-3.4,6.1-4.9,7.9-9.4,8.8c-5.8,1.2-12.3-2.7-9.3-12.4c2.5-7.9,6.2-6.7,9.9-6.4
					C302.3,115.6,311.2,118.7,307.5,125.2z"/>
				<path fill="#0C2340" d="M293.8,120.4c-0.9-0.5-2.1-0.1-2.8,0.7c-0.7,0.8-1.1,1.9-0.8,2.9c-1.4,0-2.6,1.4-2.5,2.8
					c-1-2.2-0.4-4.6-0.6-6.8c-0.2-2.3,0.1-4.8,1.5-6.5c0.6-0.7,1.4-1.3,2.2-1.7c3.2-1.7,7.1-1.7,10.3-0.1c0.7,0.3,2.3,1.4,4.6,0.8
					c4.4-1.1,7,1.9,4.3,4.7c0.9,0.3,1.8,0.7,2.2,1.5c0.1,0.2,0.1,0.5,0,0.7c-0.1,0.1-0.3,0.2-0.4,0.3c-0.7,0.3-1.6,0.3-2.3,0.2
					c0.3,0.3,1.9,0.4,2.4,1.3c1.3,2.5-3.9,1.3-4.7,1c0.9,0.2,3.3,2.1,2.5,3.4c-0.2,0.3-3.4,2.1-6.8-1.8c-0.8-0.9-1.8-1.8-2.9-2.1
					c-0.9-0.2-1.9,0.1-2.8,0.4c-0.6,0.2-2.3,1.2-2.8,0.6C294.2,122,294.9,121,293.8,120.4z"/>
				<path fill="#FFB9A3" d="M327.3,175.5c-0.9,3.1-1.8,3.4-0.7,3.9c1.1,0.5,2-1.2,2-1.2l5,1c0,0-1.1-3.3-1.9-3.7
					C330.9,175.1,327.3,175.5,327.3,175.5z"/>
				<path fill="#FFB9A3" d="M261.8,179.1c0.7,1.6,0.8,1.6,1.7,3.6c1.7,3.7-2.3,9.7-4.9,3.2c-0.7-1.8-0.7-5-0.7-5L261.8,179.1z"/>
			</g>
			<g>
				<g>
					<path fill="#0C2340" d="M301,112.1c3.4,0.2,7.6-2.2,10.3,0.9c0.2,0.3,0.7-0.1,0.5-0.4c-2.6-3.7-7.3-0.9-10.9-1
						C300.6,111.5,300.6,112.1,301,112.1L301,112.1z"/>
					<path fill="#0C2340" d="M302.4,110.2c-2.2,0.4-4.4-0.7-6.6-0.4c-2.1,0.3-3.8,1.2-5.4,2.6c-0.4,0.3,0.1,1,0.5,0.7
						c2-1.3,3.9-2.4,6.5-2.3c1.8,0.1,3.4,0.7,5.2,0.1C303,110.8,302.8,110.2,302.4,110.2L302.4,110.2z"/>
					<path fill="#0C2340" d="M289,113.4c-1.6,1-2.7,2.4-2.8,4.4c-0.1,1.4-0.2,4.7,1.2,5.5c0.3,0.2,0.7-0.3,0.4-0.5
						c-0.9-0.9-0.9-3.2-0.9-4.3c-0.1-1.9,0.8-3.5,2.3-4.6C289.5,113.7,289.3,113.3,289,113.4L289,113.4z"/>
					<path fill="#0C2340" d="M314.4,119.1c-0.8-1.5-3-2.8-4.7-1.8c-0.3,0.1-0.1,0.5,0.1,0.6c0.7,0,1.3-0.1,2,0.1
						c0.9,0.2,1.6,0.7,2.1,1.4C314.1,119.6,314.6,119.4,314.4,119.1L314.4,119.1z"/>
				</g>
			</g>
			<g>
				<path fill="#0B43A4" d="M203.1,271.6c10.6,3.9,19.8,16.1,17.7,24.9c-2.4,10-9.3,14.3-9.3,14.3l-2.2-4c0,0,5.5-8.6,5-12.7
					c-0.8-6.5-9-10.9-9-10.9L203.1,271.6z"/>
				<path fill="#0C2340" d="M177,384.3c0,0-6.5,2.6-8.1,4.1l12.9,0l0-4.1L177,384.3z"/>
				<path fill="#0C2340" d="M205.5,384.1c0,0,1.8,2.1,2.2,4.3l-8.8,0c0.2-1.5,0.8-2.9,1.6-4.3L205.5,384.1z"/>
				<path fill="#047F76" d="M206.1,384.3l-6,0c0.1-7.1-1.3-31.2-2.8-49.2c-0.8-10.6-1.6-19.1-2.1-20.8l3.2-0.7l12.1-2.7
					C212.6,320.3,207.8,363.9,206.1,384.3z"/>
				<path fill="#009790" d="M184,313.9c-4.7,7.4-5.9,60.7-7.9,70.6l5.7,0.3c0,0,6.5-33.6,20.5-71.5L184,313.9z"/>
				<path opacity="0.2" fill="#5275A0" d="M204.7,313.3c-2.8,7.5-5.2,14.8-7.4,21.7c-0.8-10.6-1.6-19.1-2.1-20.8l3.2-0.7
					L204.7,313.3z"/>
				<path fill="#009790" d="M184,313.9c-4.7,7.4-5.9,60.7-7.9,70.6l5.7,0.3c0,0,6.5-33.6,20.5-71.5L184,313.9z"/>
				<path fill="#FFB9A3" d="M187.5,254.3c0,0-3.6,13.9,5.5,13.9l-0.5,3.6l6.9,0.8l-1.5-5c0,0,1.4-8.7,1.5-10.3
					C199.5,254.3,191.3,249.1,187.5,254.3z"/>
				<g>
					
						<rect x="162.3" y="238.7" transform="matrix(1 -1.973264e-03 1.973264e-03 1 -0.4819 0.3234)" fill="#0C2340" width="2.7" height="11.3"/>
					<path fill="#0056EC" d="M171.4,238.7l-15.4,0c-1.1,0-2-0.9-2-1.9l0-0.4c0-1.1,0.9-2,2-2l15.4,0c1.1,0,2,0.9,2,1.9l0,0.4
						C173.3,237.8,172.4,238.7,171.4,238.7z"/>
				</g>
				<path fill="#FFB9A3" d="M161.6,253c-0.1-2.6-2.2-1.9-1-6.1c0.7-2.6,6.1,0.4,5.4,2.2c-0.7,1.8-1.4,4.6-1.4,4.6L161.6,253z"/>
				<path fill="#0056EC" d="M193.1,270.9c-13.6,0.9-14.5,5.5-20.6,4.8c-9-1.1-7.4-17.8-6.3-23.8l-5.4,0c0,0-9.7,38.2,21,31.1
					c-1.2,6.7,6.5,17.6-0.9,30.9c11.7,3.2,22.5,3.9,31.8-0.1c-1.6-2.2,3.3-24.4-6.4-40.4C204.3,270.3,194.1,270.8,193.1,270.9z"/>
				<path fill="#0056EC" d="M193.1,270.9c-13.6,0.9-14.5,5.5-20.6,4.8c-9-1.1-7.4-17.8-6.3-23.8l-5.4,0c0,0-9.7,38.2,21,31.1
					c-1.2,6.7,6.5,17.6-0.9,30.9c11.7,3.2,22.5,3.9,31.8-0.1c-1.6-2.2,3.3-24.4-6.4-40.4C204.3,270.3,194.1,270.8,193.1,270.9z"/>
				<path fill="#EF832B" d="M191.2,256.9c0.9,0.2,1.9,0.4,2.4,1.2c0.3,0.5,0.3,1.1,0.3,1.7c0.2-0.6,0.8-1,1.5-1
					c0.6,0.1,1.2,0.6,1.2,1.3c0,0.3-0.1,0.6-0.2,0.8c-0.3,0.7-0.6,1.3-1,1.9c1.1,0.4,2,3.7,2.6,4.7c1.9-0.5,6-2.1,6.4-8.7
					c0.2-3.1-0.8-6.8-4.1-8.8c-2.4-1.5-6.3-1.5-9-0.8c-2.2,0.6-5.7,2.8-4.1,5.3C187.9,255.8,189.7,256.6,191.2,256.9z"/>
				<path fill="#EF832B" d="M202.9,252.7c1.3-0.4,2.9-0.2,3.6,0.9c0.6,0.8,0.5,1.9,0.7,2.9c0.1,0.5,0.3,1,0.6,1.3
					c0.4,0.4,1.1,0.5,1.7,0.5c1.5,0.1,3-0.1,4.4,0.1c1.4,0.2,2.9,1.1,3.3,2.4c0.2,0.7,0.1,1.6,0.4,2.3c0.4,1.1,1.6,1.7,2.6,2.4
					c2.2,1.4,4,3.2,5.4,5.3c0.8,1.3,1.5,2.8,1.6,4.4c0.1,1.6,1.2,3.6,0.9,5.2c-0.3,1.7-2,3.9-5.2,5c-5.6,1.8-7.4,2.6-12.7-0.6
					c-0.6-0.4-1.9-1.7-2.5-2.2c-0.5-0.4-0.8-0.9-0.9-1.5c-0.4-1.5,0.1-3.2,0.9-4.6s1.9-2.6,2.7-4c0.5-0.8,0.9-1.8,0.8-2.7
					c0-0.4-0.1-0.7-0.4-1c-0.2-0.2-0.6-0.3-0.9-0.4c-1.2-0.2-2.5,0-3.5-0.5c-1-0.5-1.6-1.8-1.3-2.8c0.2-0.7,0.8-1.3,0.9-2.1
					c0.2-1.1-0.4-2.1-1.4-2.8c-0.9-0.6-2.1-0.9-3.2-1c-0.5-0.1-1.1-0.2-1.6-0.5c-0.5-0.4-0.8-1.1-0.8-1.7
					C199.2,254.9,200.9,253.4,202.9,252.7z"/>
			</g>
			<g>
				<g>
					<path fill="#EF832B" d="M201.9,258.3c6.7,1.5-1.8,7.8,1.8,10.9c1,0.9,2.2,0.6,3.4,0.8c4.6,0.6,2.1,3.7,1.8,6.2
						c0,0.4,0.6,0.4,0.6,0.1c0.4-1.7,1.9-3.7,1.1-5.5c-0.7-1.6-2.4-1.4-3.9-1.4c-1.8-0.1-3.8,0-3.1-3.6c0.1-0.8,0.8-1.6,1.1-2.3
						c0.4-0.9,0.6-1.7,0.4-2.6c-0.3-1.6-1.7-2.5-3.2-2.8C201.7,257.9,201.6,258.3,201.9,258.3L201.9,258.3z"/>
				</g>
			</g>
			<g>
				<g>
					<path fill="#EF832B" d="M188,250.1c5.2-2.6,10.4-2.1,14.8,1.8c0.3,0.3,0.7-0.1,0.4-0.4c-3.9-4.3-10.7-5.1-15.4-1.6
						C187.7,249.9,187.8,250.1,188,250.1L188,250.1z"/>
				</g>
			</g>
			<g>
				<polygon fill="#FFB9A3" points="362.6,266.4 360.4,270.9 365.9,273.2 366.5,267.9 				"/>
				<path fill="#FFB9A3" d="M366,251.6c-12.5,5.4-7.4,18.6,0.2,17.1c3.7-0.8,5.6-12.7,5.6-12.7L366,251.6z"/>
				<path fill="#4A49CA" d="M370.1,249.7c-0.4-0.8-0.8-1.6-1.5-2.1c-0.7-0.5-1.7-0.7-2.4-0.1c-0.8,0.8-0.3,2.2,0.5,3
					c-0.7,0.1-1.6-0.4-2.1,0.1c-0.4,0.4-0.3,1.1,0,1.6c0.6,1.2,1.5,2.2,2.6,2.9c-0.6,0.4-1.4,1.1-1,1.7c0.1,0.2,0.3,0.3,0.4,0.5
					c0.2,0.4,0,0.9-0.2,1.3c-0.4,0.7-0.8,1.3-1.3,1.9c0.4-0.6,1.5-0.3,1.8,0.3c0.3,0.7,0,1.5-0.4,2c-0.3,0.3-0.6,0.6-1,0.6
					c-0.3,0.1-1.9,4.8-0.7,5.7c1.5,1.1,6.4,0.1,7.1-1.1c0.7,0.8,1.8,1.4,2.8,1.2c1-0.2,1.8-1.5,1.3-2.4c1.1,0.4,2.5,0,3.3-0.9
					c0.8-0.9,0.9-2.3,0.3-3.4c0.6-0.2,0.7-1,0.6-1.6c-0.3-1.3-1.3-2.3-2.6-2.7c0.6,0,1.1-0.6,1.2-1.3c0-0.6-0.3-1.2-0.7-1.7
					c-1.2-1.4-2.6-1.8-4.3-2.1C371.8,253,370.9,251.2,370.1,249.7z"/>
				<path fill="#0C2340" d="M358.4,383.5c0,0-7.3,3.5-8.3,4.6c0,0,14.4,0.6,15.5,0c1.1-0.7-2.3-4.6-2.3-4.6L358.4,383.5z"/>
				<path fill="#0C2340" d="M385.6,379.5c0,0-6.4,4.9-7.2,6.2c0,0,15.2-2.3,15.2-3.2c0-1-3.2-4-3.2-4L385.6,379.5z"/>
				<path fill="#D8742A" d="M365.5,315.7c-0.3,1.5-10.3,41,18.4,64.7l8.3-1.9c0,0-9.7-9.1-14.2-25.3c-4.3-15.4-0.9-16.9,1.7-25.4
					c2.9-9.4,0.7-16.2,0.7-16.2L365.5,315.7z"/>
				<path fill="#EF832B" d="M351.8,315.6c-4.5,10.8-12.3,47.8,4.7,68.6l8.5,0c0,0-6.7-7.3-7.4-24.3c-0.7-17,3.6-24.4,6.6-30.1
					c3-5.6,5.9-15.1,5.9-15.1L351.8,315.6z"/>
				<path fill="#0B43A4" d="M345.8,248.3c-2.3,7.9-3,22.6,8.3,28.5l7.6-1.8c0,0-13.6-7.1-10.7-25.2L345.8,248.3z"/>
				<path fill="#0056EC" d="M325,244.3l5.9-0.7c0,0-0.7,24.6,27.7,26.7c21.7,1.6,23.4,42.3,23.4,42.3c-7,4.7-18.7,6.1-33.8,5.1
					c0,0,1-29.1-1.4-37C346.8,280.6,323.1,273.2,325,244.3z"/>
				<path fill="#FFB9A3" d="M317.8,239.8c-1,1.2,3.2,2.6,7.2,4.5l5.1-0.6c0,0,0.1-1,0-2.1s-0.6-1.7-1.2-0.8
					c-0.6,0.9-3.2,1.2-4.4,0.4C323.3,240.3,318.8,238.6,317.8,239.8z"/>
				<path fill="#FFB9A3" d="M345.8,248.3c-1.9-1.9-1.4-1.7-1.4-1.7l5.8,1.3c0,0,1.3-2.8,2.3-2.9c1.1-0.1-0.8,1.9-0.4,2.7
					c0.4,0.7-1.2,2.2-1.2,2.2L345.8,248.3z"/>
			</g>
			<g>
				<g>
					<path fill="#4A49CA" d="M373.3,252.5c1.2,0.3,2.4,0.4,3.4,1.2c1,0.8,1.4,2.2,0.7,3.3c-0.3,0.5,0.5,0.9,0.8,0.5
						c0.9-1.2,0.7-2.8-0.2-3.9c-1-1.3-3-1.8-4.6-1.6C373.1,252,373,252.4,373.3,252.5L373.3,252.5z"/>
				</g>
			</g>
			<g>
				<g>
					<path fill="#4A49CA" d="M378.5,263.1c0.8,0.5,1.4,1.2,1.1,2.2c-0.3,0.9-1.2,1.4-1.9,1.9c-0.4,0.2,0,0.8,0.3,0.6
						c1.1-0.6,2.2-1.4,2.4-2.7c0.1-1.1-0.6-2-1.6-2.5C378.5,262.4,378.2,262.9,378.5,263.1L378.5,263.1z"/>
				</g>
			</g>
			<g>
				<g>
					<path fill="#4A49CA" d="M365.4,269.1c2.7,1.6,6.4,1.4,8.6-0.9c0.3-0.3-0.1-0.8-0.4-0.6c-2.4,1.8-5.1,2.3-7.9,1.1
						C365.4,268.6,365.2,268.9,365.4,269.1L365.4,269.1z"/>
				</g>
			</g>
			<g>
				<g>
					<path fill="#4A49CA" d="M378.9,254.2c1.5,1.4,0,3.4-1,4.7c-0.2,0.3,0.1,0.6,0.4,0.4c0.9-0.8,1.7-1.7,1.9-3
						c0.1-0.9-0.3-1.8-1.1-2.3C378.9,254,378.8,254.1,378.9,254.2L378.9,254.2z"/>
				</g>
			</g>
		</g>
		<g>
			<polygon fill="#0B43A4" points="209.7,71.5 207.4,65.8 230,57.2 			"/>
			<polygon fill="#5193F4" points="210.9,68 230,57.2 216.7,70.7 			"/>
			<polygon fill="#5193F4" points="202.2,63.5 230,57.2 207.4,65.8 			"/>
			<polygon fill="#0056EC" points="210.9,68 209.7,71.5 213.2,69.1 			"/>
		</g>
		
			<path fill="none" stroke="#C8DBFB" stroke-linecap="round" stroke-linejoin="round" stroke-miterlimit="10" stroke-dasharray="4" d="
			M207.1,70.8c-5.9-1-13.9,5-10.5,11.2c1.2,2.1,7.2,1.2,6.8-1.1c-0.2-1.1-1.6-1.6-2.7-1.5c-6.6,0.8-6.9,6.3-6.6,7.7
			c1.5,7.3,12.7,4.8,16.4,3.8"/>
	</g>
</g>
<g id="DESIGNED_BY_FREEPIK" display="none">
</g>
</svg>
